<svg width="83" height="83" viewBox="0 0 83 83" fill="none" xmlns="http://www.w3.org/2000/svg">
<path d="M70.86 82.86H12C5.4 82.86 0 77.46 0 70.86V12C0 5.4 5.4 0 12 0H70.86C77.46 0 82.86 5.4 82.86 12V70.86C82.86 77.46 77.46 82.86 70.86 82.86Z" fill="#42BA78"/>
<path d="M65.4001 24.48L56.8401 32.71C54.9601 29.53 51.9101 27.98 47.5701 27.98C38.1701 27.98 32.5901 34.27 32.5901 44.64C32.5901 51.06 36.5401 54.88 42.4401 54.88C46.6501 54.88 50.3501 53.32 53.4601 50.21L60.0701 60C55.2701 64.09 49.1801 66.09 41.7201 66.09C35.0401 66.09 29.7901 64.21 25.9001 60.45C22.0101 56.63 20.0601 51.57 20.0601 45.28C20.0601 37.57 22.7801 30.89 28.2901 25.25C33.8001 19.61 40.4101 16.76 48.2601 16.76C56.3201 16.76 60.9901 19.23 65.4001 24.48Z" fill="white"/>
</svg>