<svg width="353" height="43" viewBox="0 0 353 43" fill="none" xmlns="http://www.w3.org/2000/svg">
<path d="M133.53 0.72998H165.33L164.42 5.94998C164.13 8.24998 162.19 10.05 159.82 10.06H131.75C129.67 10.12 127.95 11.53 127.41 13.45L128 10.06L128.93 4.80998C129.21 2.50998 131.15 0.72998 133.53 0.72998Z" fill="#42BA78"/>
<path d="M39.09 6.70002L31.71 13.8C30.09 11.06 27.46 9.72002 23.71 9.72002C15.6 9.72002 10.79 15.14 10.79 24.09C10.79 29.63 14.2 32.93 19.29 32.93C22.92 32.93 26.11 31.59 28.8 28.9L34.5 37.34C30.36 40.86 25.11 42.6 18.67 42.6C12.91 42.6 8.38 40.98 5.03 37.74C1.68 34.44 0 30.08 0 24.65C0 18 2.35 12.24 7.1 7.37002C11.85 2.50002 17.56 0.0500228 24.32 0.0500228C31.27 0.0400228 35.29 2.17002 39.09 6.70002Z" fill="#42BA78"/>
<path d="M108.01 0.729971C111.81 0.729971 115 1.84997 117.57 4.07997C120.2 6.31997 121.48 9.22997 121.48 12.8C121.48 19.01 117.85 24.04 112.31 26.5L118.57 41.82H107.16L101.74 28.18H96.88L94.48 41.82H83.85L91.06 0.719971H108.01V0.729971ZM100.12 9.83997L98.44 19.07H104.81C108 19.07 110.63 16.89 110.63 13.53C110.63 11.24 109.01 9.83997 106.49 9.83997H100.12Z" fill="#42BA78"/>
<path d="M200.3 4.81L193.7 12.81C191.52 10.74 188.55 9.68 184.92 9.68C181.73 9.68 179.44 10.69 179.44 12.87C179.44 14.43 180.78 15.33 185.42 16.22C194.31 17.95 197.61 21.76 197.61 27.74C197.61 38.25 188.66 42.56 179.66 42.56C172.78 42.56 167.41 40.55 163.56 36.52L170.16 28.41C171.17 29.81 172.62 30.87 174.58 31.71C176.54 32.49 178.55 32.88 180.51 32.88C184.59 32.88 186.66 31.76 186.66 29.58C186.66 27.96 185.26 27.07 180.51 26.11C172.63 24.49 168.71 20.69 168.71 14.65C168.71 10.46 170.28 6.93 173.41 4.19C176.59 1.4 180.56 0 185.42 0C191.74 0 196.66 1.62 200.3 4.81Z" fill="#05406B"/>
<path d="M240.14 0.72998L238.52 10.07H225.99L220.4 41.83H209.77L215.36 10.07H202.83L204.45 0.72998H240.14Z" fill="#05406B"/>
<path d="M311.44 6.65L304.06 13.75C302.44 11.01 299.81 9.67 296.06 9.67C287.95 9.67 283.14 15.09 283.14 24.04C283.14 29.58 286.55 32.88 291.64 32.88C295.27 32.88 298.46 31.54 301.15 28.85L306.85 37.29C302.71 40.81 297.46 42.55 291.02 42.55C285.26 42.55 280.73 40.93 277.38 37.69C274.03 34.39 272.35 30.03 272.35 24.6C272.35 17.95 274.7 12.19 279.45 7.32C284.2 2.46 289.91 0 296.68 0C303.61 0 307.64 2.12 311.44 6.65Z" fill="#05406B"/>
<path d="M332.68 20.06L352.45 0.72998H339.9L324.58 15.74L327.22 0.72998H316.68L309.44 41.82H319.99L322.23 29.14L324.47 26.93L333.74 41.82H346.24L332.68 20.06Z" fill="#05406B"/>
<path d="M130.74 16.61H162.54L161.63 21.83C161.34 24.13 159.4 25.93 157.03 25.94H128.96C126.88 26 125.16 27.41 124.62 29.33L125.21 25.94L126.14 20.69C126.42 18.39 128.36 16.61 130.74 16.61Z" fill="#42BA78"/>
<path d="M122.41 41.82L123.34 36.57C123.63 34.27 125.57 32.49 127.95 32.49H159.75L158.84 37.71C158.55 40.01 156.61 41.81 154.24 41.82H122.41Z" fill="#42BA78"/>
<path d="M80.73 41.84L69.38 14.95L63.38 0.72998L59.1 7.15998L36.02 41.82V41.83H46.65V41.82H48.59L61.31 22.73L69.37 41.83L80.73 41.84Z" fill="#42BA78"/>
<path d="M272.08 41.84L260.72 14.95L254.73 0.72998L250.44 7.15998L227.36 41.82V41.83H237.99V41.82H239.94L252.65 22.73L260.71 41.83L272.08 41.84Z" fill="#05406B"/>
</svg>
