<svg width="354" height="44" viewBox="0 0 354 44" fill="none" xmlns="http://www.w3.org/2000/svg">
<path d="M134.28 1.54999H166.08L165.17 6.76999C164.88 9.06999 162.94 10.87 160.57 10.88H132.5C130.42 10.94 128.7 12.35 128.16 14.27L128.75 10.88L129.68 5.63C129.96 3.33 131.9 1.54999 134.28 1.54999Z" fill="#42BA78"/>
<path d="M39.84 7.52002L32.46 14.62C30.84 11.88 28.21 10.54 24.46 10.54C16.35 10.54 11.54 15.96 11.54 24.91C11.54 30.45 14.95 33.75 20.04 33.75C23.67 33.75 26.86 32.41 29.55 29.72L35.25 38.16C31.11 41.68 25.86 43.42 19.42 43.42C13.66 43.42 9.13 41.8 5.78 38.56C2.43 35.26 0.75 30.9 0.75 25.47C0.75 18.82 3.1 13.06 7.85 8.19004C12.6 3.32004 18.31 0.87003 25.07 0.87003C32.02 0.86003 36.04 2.99002 39.84 7.52002Z" fill="#42BA78"/>
<path d="M108.76 1.55002C112.56 1.55002 115.75 2.67002 118.32 4.90002C120.95 7.14002 122.23 10.05 122.23 13.62C122.23 19.83 118.6 24.86 113.06 27.32L119.32 42.64H107.91L102.49 29H97.63L95.23 42.64H84.6L91.81 1.54004H108.76V1.55002ZM100.87 10.66L99.19 19.89H105.56C108.75 19.89 111.38 17.71 111.38 14.35C111.38 12.06 109.76 10.66 107.24 10.66H100.87Z" fill="#42BA78"/>
<path d="M201.05 5.63L194.45 13.63C192.27 11.56 189.3 10.5 185.67 10.5C182.48 10.5 180.19 11.51 180.19 13.69C180.19 15.25 181.53 16.15 186.17 17.04C195.06 18.77 198.36 22.58 198.36 28.56C198.36 39.07 189.41 43.38 180.41 43.38C173.53 43.38 168.16 41.37 164.31 37.34L170.91 29.23C171.92 30.63 173.37 31.69 175.33 32.53C177.29 33.31 179.3 33.7 181.26 33.7C185.34 33.7 187.41 32.58 187.41 30.4C187.41 28.78 186.01 27.89 181.26 26.93C173.38 25.31 169.46 21.51 169.46 15.47C169.46 11.28 171.03 7.75001 174.16 5.01001C177.35 2.21001 181.32 0.820007 186.18 0.820007C192.49 0.820007 197.41 2.44 201.05 5.63Z" fill="white"/>
<path d="M240.89 1.54999L239.27 10.89H226.74L221.15 42.65H210.52L216.11 10.89H203.58L205.2 1.54999H240.89Z" fill="white"/>
<path d="M312.19 7.47L304.81 14.57C303.19 11.83 300.56 10.49 296.81 10.49C288.7 10.49 283.89 15.91 283.89 24.86C283.89 30.4 287.3 33.7 292.39 33.7C296.02 33.7 299.21 32.36 301.9 29.67L307.6 38.11C303.46 41.63 298.21 43.37 291.77 43.37C286.01 43.37 281.48 41.75 278.13 38.51C274.78 35.21 273.1 30.85 273.1 25.42C273.1 18.77 275.45 13.01 280.2 8.14001C284.95 3.27001 290.66 0.820007 297.42 0.820007C304.36 0.820007 308.39 2.95 312.19 7.47Z" fill="white"/>
<path d="M333.43 20.88L353.2 1.54999H340.65L325.33 16.56L327.97 1.54999H317.43L310.19 42.64H320.74L322.98 29.96L325.22 27.75L334.49 42.64H346.99L333.43 20.88Z" fill="white"/>
<path d="M131.49 17.43H163.29L162.38 22.65C162.09 24.95 160.15 26.75 157.78 26.76H129.71C127.63 26.82 125.91 28.23 125.37 30.15L125.96 26.76L126.89 21.51C127.17 19.22 129.11 17.43 131.49 17.43Z" fill="#42BA78"/>
<path d="M123.16 42.65L124.09 37.4C124.38 35.1 126.32 33.32 128.7 33.32H160.5L159.59 38.54C159.3 40.84 157.36 42.64 154.99 42.65H123.16Z" fill="#42BA78"/>
<path d="M81.48 42.66L70.13 15.77L64.13 1.54999L59.85 7.98001L36.77 42.65H47.4V42.64H49.34L62.06 23.55L70.12 42.65L81.48 42.66Z" fill="#42BA78"/>
<path d="M272.83 42.66L261.47 15.77L255.48 1.54999L251.19 7.98001L228.11 42.65H238.74V42.64H240.69L253.4 23.55L261.46 42.65L272.83 42.66Z" fill="white"/>
<path d="M134.28 1.54999H166.08L165.17 6.76999C164.88 9.06999 162.94 10.87 160.57 10.88H132.5C130.42 10.94 128.7 12.35 128.16 14.27L128.75 10.88L129.68 5.63C129.96 3.33 131.9 1.54999 134.28 1.54999Z" fill="#42BA78"/>
<path d="M39.84 7.52002L32.46 14.62C30.84 11.88 28.21 10.54 24.46 10.54C16.35 10.54 11.54 15.96 11.54 24.91C11.54 30.45 14.95 33.75 20.04 33.75C23.67 33.75 26.86 32.41 29.55 29.72L35.25 38.16C31.11 41.68 25.86 43.42 19.42 43.42C13.66 43.42 9.13 41.8 5.78 38.56C2.43 35.26 0.75 30.9 0.75 25.47C0.75 18.82 3.1 13.06 7.85 8.19004C12.6 3.32004 18.31 0.87003 25.07 0.87003C32.02 0.86003 36.04 2.99002 39.84 7.52002Z" fill="#42BA78"/>
<path d="M108.76 1.55002C112.56 1.55002 115.75 2.67002 118.32 4.90002C120.95 7.14002 122.23 10.05 122.23 13.62C122.23 19.83 118.6 24.86 113.06 27.32L119.32 42.64H107.91L102.49 29H97.63L95.23 42.64H84.6L91.81 1.54004H108.76V1.55002ZM100.87 10.66L99.19 19.89H105.56C108.75 19.89 111.38 17.71 111.38 14.35C111.38 12.06 109.76 10.66 107.24 10.66H100.87Z" fill="#42BA78"/>
<path d="M201.05 5.63L194.45 13.63C192.27 11.56 189.3 10.5 185.67 10.5C182.48 10.5 180.19 11.51 180.19 13.69C180.19 15.25 181.53 16.15 186.17 17.04C195.06 18.77 198.36 22.58 198.36 28.56C198.36 39.07 189.41 43.38 180.41 43.38C173.53 43.38 168.16 41.37 164.31 37.34L170.91 29.23C171.92 30.63 173.37 31.69 175.33 32.53C177.29 33.31 179.3 33.7 181.26 33.7C185.34 33.7 187.41 32.58 187.41 30.4C187.41 28.78 186.01 27.89 181.26 26.93C173.38 25.31 169.46 21.51 169.46 15.47C169.46 11.28 171.03 7.75001 174.16 5.01001C177.35 2.21001 181.32 0.820007 186.18 0.820007C192.49 0.820007 197.41 2.44 201.05 5.63Z" fill="white"/>
<path d="M240.89 1.54999L239.27 10.89H226.74L221.15 42.65H210.52L216.11 10.89H203.58L205.2 1.54999H240.89Z" fill="white"/>
<path d="M312.19 7.47L304.81 14.57C303.19 11.83 300.56 10.49 296.81 10.49C288.7 10.49 283.89 15.91 283.89 24.86C283.89 30.4 287.3 33.7 292.39 33.7C296.02 33.7 299.21 32.36 301.9 29.67L307.6 38.11C303.46 41.63 298.21 43.37 291.77 43.37C286.01 43.37 281.48 41.75 278.13 38.51C274.78 35.21 273.1 30.85 273.1 25.42C273.1 18.77 275.45 13.01 280.2 8.14001C284.95 3.27001 290.66 0.820007 297.42 0.820007C304.36 0.820007 308.39 2.95 312.19 7.47Z" fill="white"/>
<path d="M333.43 20.88L353.2 1.54999H340.65L325.33 16.56L327.97 1.54999H317.43L310.19 42.64H320.74L322.98 29.96L325.22 27.75L334.49 42.64H346.99L333.43 20.88Z" fill="white"/>
<path d="M131.49 17.43H163.29L162.38 22.65C162.09 24.95 160.15 26.75 157.78 26.76H129.71C127.63 26.82 125.91 28.23 125.37 30.15L125.96 26.76L126.89 21.51C127.17 19.22 129.11 17.43 131.49 17.43Z" fill="#42BA78"/>
<path d="M123.16 42.65L124.09 37.4C124.38 35.1 126.32 33.32 128.7 33.32H160.5L159.59 38.54C159.3 40.84 157.36 42.64 154.99 42.65H123.16Z" fill="#42BA78"/>
<path d="M81.48 42.66L70.13 15.77L64.13 1.54999L59.85 7.98001L36.77 42.65H47.4V42.64H49.34L62.06 23.55L70.12 42.65L81.48 42.66Z" fill="#42BA78"/>
<path d="M272.83 42.66L261.47 15.77L255.48 1.54999L251.19 7.98001L228.11 42.65H238.74V42.64H240.69L253.4 23.55L261.46 42.65L272.83 42.66Z" fill="white"/>
</svg>
